<mxfile host="app.diagrams.net" agent="Mozilla/5.0 (Windows NT 10.0; Win64; x64) AppleWebKit/537.36 (KHTML, like Gecko) Chrome/135.0.0.0 Safari/537.36" version="26.2.14">
  <diagram id="C5RBs43oDa-KdzZeNtuy" name="Page-1">
    <mxGraphModel dx="925" dy="500" grid="0" gridSize="10" guides="1" tooltips="1" connect="1" arrows="1" fold="1" page="1" pageScale="1" pageWidth="827" pageHeight="1169" math="0" shadow="0">
      <root>
        <mxCell id="WIyWlLk6GJQsqaUBKTNV-0" />
        <mxCell id="WIyWlLk6GJQsqaUBKTNV-1" parent="WIyWlLk6GJQsqaUBKTNV-0" />
        <mxCell id="je9AxxynNqr57Z2h_HMl-0" value="START" style="ellipse;whiteSpace=wrap;html=1;" vertex="1" parent="WIyWlLk6GJQsqaUBKTNV-1">
          <mxGeometry x="334" y="43" width="88" height="29" as="geometry" />
        </mxCell>
        <mxCell id="je9AxxynNqr57Z2h_HMl-1" value="Customer Name: TOYOTA&lt;div&gt;Environment:&amp;nbsp; &amp;nbsp; &amp;nbsp;PROD&lt;/div&gt;&lt;div&gt;AWS Region:&amp;nbsp; &amp;nbsp; &amp;nbsp; &amp;nbsp; us-west2&lt;/div&gt;" style="shape=parallelogram;perimeter=parallelogramPerimeter;whiteSpace=wrap;html=1;fixedSize=1;size=29.66668701171875;" vertex="1" parent="WIyWlLk6GJQsqaUBKTNV-1">
          <mxGeometry x="280" y="104" width="216" height="66" as="geometry" />
        </mxCell>
        <mxCell id="je9AxxynNqr57Z2h_HMl-2" value="Create New RDS" style="shape=cylinder3;whiteSpace=wrap;html=1;boundedLbl=1;backgroundOutline=1;size=15;" vertex="1" parent="WIyWlLk6GJQsqaUBKTNV-1">
          <mxGeometry x="317" y="221" width="146" height="85" as="geometry" />
        </mxCell>
        <mxCell id="je9AxxynNqr57Z2h_HMl-3" value="Restore TemplateDB" style="ellipse;whiteSpace=wrap;html=1;aspect=fixed;" vertex="1" parent="WIyWlLk6GJQsqaUBKTNV-1">
          <mxGeometry x="552" y="221" width="77" height="77" as="geometry" />
        </mxCell>
        <mxCell id="je9AxxynNqr57Z2h_HMl-4" value="" style="endArrow=classic;html=1;rounded=0;exitX=1;exitY=0;exitDx=0;exitDy=28.75;exitPerimeter=0;" edge="1" parent="WIyWlLk6GJQsqaUBKTNV-1" source="je9AxxynNqr57Z2h_HMl-2">
          <mxGeometry width="50" height="50" relative="1" as="geometry">
            <mxPoint x="381" y="306" as="sourcePoint" />
            <mxPoint x="543" y="248" as="targetPoint" />
          </mxGeometry>
        </mxCell>
        <mxCell id="je9AxxynNqr57Z2h_HMl-5" value="" style="endArrow=classic;html=1;rounded=0;entryX=1;entryY=0.5;entryDx=0;entryDy=0;entryPerimeter=0;" edge="1" parent="WIyWlLk6GJQsqaUBKTNV-1" target="je9AxxynNqr57Z2h_HMl-2">
          <mxGeometry width="50" height="50" relative="1" as="geometry">
            <mxPoint x="540" y="262" as="sourcePoint" />
            <mxPoint x="469" y="262" as="targetPoint" />
          </mxGeometry>
        </mxCell>
        <mxCell id="je9AxxynNqr57Z2h_HMl-6" value="DBName:&lt;div&gt;Toyota_Prod_v15&lt;/div&gt;" style="text;html=1;align=center;verticalAlign=middle;whiteSpace=wrap;rounded=0;" vertex="1" parent="WIyWlLk6GJQsqaUBKTNV-1">
          <mxGeometry x="458" y="298" width="118" height="33" as="geometry" />
        </mxCell>
      </root>
    </mxGraphModel>
  </diagram>
</mxfile>
